<svg width="108" height="93" viewBox="0 0 108 93" fill="none" xmlns="http://www.w3.org/2000/svg">
<path d="M19.1576 92.6045H81.1662C85.2227 92.6045 88.5209 89.7644 88.5209 86.2733V30.1688L19.1576 30.1667V92.6045Z" fill="#647F94"/>
<path d="M69.3467 43.6395C69.3467 42.0585 70.835 40.777 72.671 40.777C74.507 40.777 75.9976 42.0585 75.9976 43.6395V81.7542C75.9976 83.3373 74.507 84.6168 72.671 84.6168C70.835 84.6168 69.3467 83.3373 69.3467 81.7542V43.6395ZM50.5108 43.6395C50.5108 42.0585 51.9991 40.777 53.8374 40.777C55.6711 40.777 57.1593 42.0585 57.1593 43.6395V81.7542C57.1593 83.3373 55.6711 84.6168 53.8374 84.6168C51.9991 84.6168 50.5108 83.3373 50.5108 81.7542V43.6395ZM31.6737 43.6395C31.6737 42.0585 33.1643 40.777 34.998 40.777C36.834 40.777 38.3246 42.0585 38.3246 43.6395V81.7542C38.3246 83.3373 36.834 84.6168 34.998 84.6168C33.1643 84.6168 31.6737 83.3373 31.6737 81.7542V43.6395Z" fill="#95AEC2"/>
<path d="M93.3631 14.7972H14.3082V24.4427H93.3631V14.7972Z" fill="#6EC4A7"/>
<path d="M64.6387 1.01178H43.0327V9.07212H64.6387V1.01178Z" fill="#647F94"/>
</svg>
