<svg width="116" height="112" viewBox="0 0 116 112" fill="none" xmlns="http://www.w3.org/2000/svg">
<path d="M96.7144 61.873C100.658 61.1602 103.21 58.0609 103.21 54.3561V45.1503C103.21 44.8354 103.223 44.4197 103.054 44.4197H103.152L103.197 44.3538C103.196 44.3532 103.22 44.3224 103.22 44.3217L95.4652 32.8618C94.1911 31.0166 91.5108 29.4134 89.2141 29.4134H71.4292V26.3897H78.885C81.5138 26.3897 83.1439 24.674 83.1439 22.1358V9.86126C83.1439 7.32307 81.5138 5 78.885 5H35.9792C33.3504 5 30.9498 7.32307 30.9498 9.86126V22.1356C30.9498 24.6738 33.3504 26.3896 35.9792 26.3896H42.7804V29.4133H25.6501C23.3533 29.4133 20.6609 31.0015 19.3868 32.8467L11.6203 44.1931C11.62 44.1938 11.6194 44.2856 11.6189 44.2863L11.6151 44.3585L11.4416 44.3709C11.273 44.3709 11 44.8354 11 45.1503V54.3561C11 58.0609 14.1316 61.1602 17.2633 61.873V97.3166C17.2633 98.4351 18.021 99.1816 18.5647 100.077H12.5078V103.213H101.586V100.077H96.2995C96.8432 99.1816 96.7144 98.4351 96.7144 97.3166V61.873ZM93.5828 94.03H50.6676V74.3021C50.6676 71.7639 48.9373 69.3929 46.3084 69.3929H33.5955C30.9667 69.3929 28.3981 71.7639 28.3981 74.3021V94.0301H20.3949V61.873C22.9467 61.4911 24.2593 60.4183 25.4062 58.9394C26.8566 60.8097 29.2842 62.0277 31.8845 62.0277C34.4848 62.0277 36.8515 60.8097 38.3018 58.9394C39.7523 60.8097 42.0883 62.0277 44.6888 62.0277C47.2891 62.0277 49.61 60.8097 51.0604 58.9394C52.5108 60.8097 54.8241 62.0277 57.4244 62.0277C60.0247 62.0277 62.3342 60.8097 63.7846 58.9394C65.2351 60.8097 67.5426 62.0277 70.1429 62.0277C72.7433 62.0277 75.0499 60.8097 76.5003 58.9394C77.9507 60.8097 80.2569 62.0277 82.8572 62.0277C85.4575 62.0277 87.5641 60.8097 89.0145 58.9394C90.1614 60.4183 91.9589 61.4911 93.5828 61.873V94.03ZM47.5359 75.6641H31.5297V74.302C31.5297 73.4558 32.7195 72.4164 33.5955 72.4164H46.3083C47.1844 72.4164 47.5358 73.4558 47.5358 74.302V75.6641H47.5359ZM26.8902 46.3234H36.2852V54.356C36.2852 56.8942 34.2165 58.9589 31.5877 58.9589C28.9588 58.9589 26.8902 56.8942 26.8902 54.356V46.3234ZM39.4168 46.3234H49.0437V54.356C49.0437 56.8942 46.8591 58.9589 44.2303 58.9589C41.6014 58.9589 39.4168 56.8942 39.4168 54.356V46.3234ZM52.1754 46.3234H61.9183V54.356C61.9183 56.8942 59.6757 58.9589 57.0468 58.9589C54.418 58.9589 52.1754 56.8942 52.1754 54.356V46.3234ZM65.0499 46.3234H74.5609V54.356C74.5609 56.8942 72.4343 58.9589 69.8054 58.9589C67.1766 58.9589 65.0499 56.8942 65.0499 54.356V46.3234ZM77.6925 46.3234H87.3195V54.356C87.3195 56.8942 85.1348 58.9589 82.506 58.9589C79.8772 58.9589 77.6925 56.8942 77.6925 54.356V46.3234ZM100.078 54.3561C100.078 56.8943 97.8934 58.959 95.2646 58.959C92.6357 58.959 90.4511 56.8943 90.4511 54.3561V46.3235H100.078V54.3561ZM80.0123 21.8317C80.0123 22.6791 79.3008 23.3661 78.4231 23.3661H35.6706C34.7929 23.3661 34.0814 22.6791 34.0814 21.8317V9.558C34.0814 8.71059 34.7929 8.02366 35.6706 8.02366H78.4233C79.3009 8.02366 80.0124 8.71059 80.0124 9.558V21.8317H80.0123ZM22.0312 34.4243C22.707 33.4458 24.4319 32.549 25.6501 32.549H56.9309V29.4134H45.9121V26.3897H68.1816V32.549H89.2141C90.4323 32.549 92.1572 33.4458 92.833 34.4243L98.9576 43.2998H15.9066L22.0312 34.4243ZM14.1316 54.3561V46.3235H23.7586V54.3561C23.7586 56.8943 21.574 58.959 18.9451 58.959C16.3163 58.959 14.1316 56.8943 14.1316 54.3561ZM24.061 100.077C22.3082 100.077 20.8828 99.1814 20.8828 97.0537H28.3981V100.077H24.061ZM31.5297 100.077V78.6877H47.5359V100.077H31.5297ZM50.6676 100.077V97.0537H93.9814C93.9814 99.1814 92.556 100.077 90.8032 100.077H50.6676Z" fill="#262626"/>
<path d="M88.9053 89.0207C88.9053 89.8681 88.1939 90.555 87.3162 90.555H58.714C57.8363 90.555 57.1249 89.8681 57.1249 89.0207V72.8274C57.1249 71.98 57.8363 71.2931 58.714 71.2931H87.3163C88.194 71.2931 88.9054 71.98 88.9054 72.8274V89.0207H88.9053Z" fill="#E0E0E0"/>
<path d="M42.7424 88.2032H45.8741V94.2505H42.7424V88.2032ZM45.1782 12.9476H70.5793V15.9713H45.1782V12.9476ZM50.6295 18.995H64.896V22.2426H50.6295V18.995Z" fill="#FF4C48"/>
</svg>
