<svg width="53" height="99" viewBox="0 0 53 99" fill="none" xmlns="http://www.w3.org/2000/svg">
<path d="M26.3336 17.9417C27.1669 18.7427 27.1669 24.8301 26.3336 25.631L15.8336 30.9174C14.6669 31.398 13.8336 31.7184 13.0002 30.9174C12.1669 30.1165 12.1669 28.9951 13.0002 28.1941L23.5002 18.1019C24.3336 17.3009 25.5002 17.3009 26.3336 17.9417Z" fill="#668B96"/>
<path d="M26.3336 17.9418C27.1669 18.7427 27.1669 24.8301 26.3336 25.6311L15.8336 30.9175C14.6669 31.3981 13.8336 31.7185 13.0002 30.9175C12.1669 30.1165 12.1669 28.9952 13.0002 28.1942L25.3336 20.0243C26.0002 19.2233 25.5002 17.301 26.3336 17.9418Z" fill="#54737F"/>
<path d="M8.16691 10.8932C8.16691 12.6554 6.66691 14.0971 4.83358 14.0971C3.00024 14.0971 1.50024 12.6554 1.50024 10.8932V7.68936C1.50024 5.92722 3.00024 4.48547 4.83358 4.48547C6.66691 4.48547 8.16691 5.92722 8.16691 7.68936V10.8932Z" fill="#62D122"/>
<path d="M8.16691 7.68933V11.0534C8.16691 12.9757 6.83358 14.5777 4.83358 14.5777C2.83358 14.5777 1.50024 12.9757 1.50024 11.0534V7.68933" fill="#4DB20D"/>
<path d="M48.5003 11.8544C48.5003 13.9369 48.8337 22.1068 38.3337 23.3883L8.83366 17.6214C6.66699 17.6214 4.66699 15.8592 4.66699 13.7767V5.76699C4.66699 3.68447 6.66699 1.92233 8.83366 1.92233L39.8337 0C42.0003 0 43.8337 1.76214 43.8337 3.84466L48.5003 11.8544Z" fill="#AFCCD8"/>
<path d="M40.0003 14.097C42.167 14.097 44.0003 15.0582 44.0003 16.1796L42.0003 31.5582C42.0003 32.6796 40.167 33.4805 38.0003 33.4805H29.667C27.5003 33.4805 25.667 32.6796 25.667 31.5582L23.667 16.1796C23.667 15.0582 25.5003 14.2572 27.667 14.2572H40.0003V14.097Z" fill="#7FA6B5"/>
<path d="M40.0002 0C42.1668 0 44.0002 1.76214 44.0002 3.84466L48.5002 11.6942C48.5002 13.7767 48.8335 22.1068 38.5002 23.2282L9.00016 17.6214C6.8335 17.6214 4.8335 15.8592 4.8335 13.7767V7.68932" fill="#99B9C9"/>
<path d="M43.1668 35.8835C43.1668 36.5243 42.8335 36.5243 42.3335 36.5243H25.5002C24.8335 36.5243 24.8335 36.5243 24.8335 35.8835V32.1991C24.8335 31.5583 24.8335 31.7185 25.5002 31.7185H42.3335C43.0002 31.7185 43.1668 31.5583 43.1668 32.1991V35.8835Z" fill="#62D122"/>
<path d="M43.1668 31.7185V35.8836C43.1668 36.5243 42.8335 36.5243 42.3335 36.5243H25.5002C24.8335 36.5243 24.8335 36.5243 24.8335 35.8836V31.7185" fill="#4DB20D"/>
<path d="M44.5002 36.5243H23.1669C18.5002 36.5243 14.8336 39.568 14.8336 44.2136V51.4223L0.000228626 83.7816C0.000228626 92.1117 -0.166438 99 8.50023 99H44.3336C53.0002 99 53.0002 91.7913 53.0002 83.4612V53.3447V48.0583V44.2136C53.1669 39.568 49.3336 36.5243 44.5002 36.5243Z" fill="#88E2E2"/>
<path d="M44.5002 36.5243H26.0002C21.3336 36.5243 18.1669 39.568 18.1669 44.2136V51.4223L0.000228626 83.7816C0.000228626 92.1117 -0.166438 99 8.50023 99H44.3336C53.0002 99 53.0002 91.7913 53.0002 83.4612V53.3447V48.0583V44.2136C53.1669 39.568 49.3336 36.5243 44.5002 36.5243Z" fill="#4FC7D3"/>
<path d="M0.000228626 83.7816C0.000228626 92.1117 -0.166438 99.0001 8.50023 99.0001H44.3336C53.0002 99.0001 53.0002 92.1117 53.0002 83.7816" fill="#41B9BF"/>
<path d="M33.167 36.5243V48.3787C33.167 49.0194 34.167 49.5 34.8337 49.5C35.5003 49.5 36.5003 49.0194 36.5003 48.3787V36.5243H33.167Z" fill="#41B9BF"/>
<path d="M44.8337 88.1068C44.8337 90.1893 43.5003 92.5922 41.3337 92.5922H26.8337C24.667 92.5922 23.167 90.1893 23.167 88.1068V46.7767C23.167 44.6941 24.667 42.932 26.8337 42.932H41.3337C43.5003 42.932 44.8337 44.534 44.8337 46.7767V88.1068Z" fill="#62D122"/>
<path d="M44.8337 46.1359V88.1067C44.8337 90.1893 43.5003 92.5922 41.3337 92.5922H26.8337C24.667 92.5922 23.167 90.1893 23.167 88.1067V46.1359" fill="#4DB20D"/>
</svg>
