<svg width="103" height="99" viewBox="0 0 103 99" fill="none" xmlns="http://www.w3.org/2000/svg">
<g clip-path="url(#clip0_157_31)">
<path d="M83.6965 36.587H19.3038L11.1958 44.3801V48.6845V93.6196C11.1958 95.403 12.6992 96.8479 14.5546 96.8479H88.446C90.3014 96.8479 91.8047 95.403 91.8047 93.6196V44.3803L83.6965 36.587Z" fill="#DBE9FD"/>
<path d="M83.6965 36.587H51.5001V96.8479H88.4458C90.3012 96.8479 91.8046 95.403 91.8046 93.6196V44.3803L83.6965 36.587Z" fill="#C5DCFD"/>
<path d="M17.9132 90.3914V47.0547V43.0436H85.0872V47.0547V90.3914H17.9132Z" fill="#B1C6E4"/>
<path d="M51.5001 90.3914H85.0872V47.0547V43.0436H51.5001V90.3914Z" fill="#9DB0CA"/>
<path d="M91.8046 40.8913L71.6523 21.5217V18.2936C71.6523 16.5108 73.1561 15.0652 75.0111 15.0652H88.446C90.3008 15.0652 91.8048 16.5106 91.8048 18.2936V40.8913H91.8046Z" fill="#875334"/>
<path d="M85.9356 38.7392L51.5002 5.64105L17.0647 38.7392H85.9356Z" fill="#DBE9FD"/>
<path d="M85.9356 38.7392L51.5001 5.64105V38.7392H85.9356Z" fill="#C5DCFD"/>
<path d="M99.6416 54.8805C98.7822 54.8805 97.9228 54.5652 97.2669 53.9346L51.5 9.94548L5.73336 53.9346C4.42151 55.1955 2.29593 55.1955 0.983883 53.9346C-0.327961 52.6747 -0.327961 50.6297 0.983883 49.3696L49.1252 3.09783C50.4371 1.83694 52.5626 1.83694 53.8747 3.09783L102.016 49.3696C103.328 50.6295 103.328 52.6745 102.016 53.9346C101.36 54.5652 100.501 54.8805 99.6416 54.8805Z" fill="#FF6243"/>
<path d="M53.8748 3.09802C53.2189 2.46747 52.3595 2.1521 51.5001 2.1521V9.94527L97.267 53.9348C97.923 54.5654 98.7824 54.8807 99.6417 54.8807C100.501 54.8807 101.36 54.5654 102.016 53.9348C103.328 52.6749 103.328 50.6299 102.016 49.3698L53.8748 3.09802Z" fill="#FF3501"/>
<path d="M64.935 43.0436H58.2177V64.5654H64.935V43.0436Z" fill="#FF3501"/>
<path d="M78.3697 43.0436H71.6523V64.5654H78.3697V43.0436Z" fill="#FF3501"/>
<path d="M78.3699 51.6522H58.2177V58.1087H78.3699V51.6522Z" fill="#FF3501"/>
<path d="M38.0652 43.0436H31.3479V64.5654H38.0652V43.0436Z" fill="#ECEFF0"/>
<path d="M31.3478 71.0218H24.6305V90.3914H31.3478V71.0218Z" fill="#FF6243"/>
<path d="M44.7828 71.0218H38.0654V90.3914H44.7828V71.0218Z" fill="#FF6243"/>
<path d="M44.7827 77.4785H24.6305V83.9349H44.7827V77.4785Z" fill="#FF6243"/>
<path d="M58.2175 71.0218H51.5001V90.3914H58.2175V71.0218Z" fill="#DADFE4"/>
<path d="M71.6523 90.3914H58.2174V77.4783H68.2935C70.1483 77.4783 71.6523 78.9236 71.6523 80.7066V90.3914Z" fill="#60AED5"/>
<path d="M91.8046 64.5653H11.1957V71.0218H91.8046V64.5653Z" fill="#DBE9FD"/>
<path d="M91.8046 64.5653H51.5001V71.0218H91.8046V64.5653Z" fill="#C5DCFD"/>
</g>
<defs>
<clipPath id="clip0_157_31">
<rect width="103" height="99" fill="white"/>
</clipPath>
</defs>
</svg>
