<svg xmlns="http://www.w3.org/2000/svg" xmlns:xlink="http://www.w3.org/1999/xlink" width="500" zoomAndPan="magnify" viewBox="0 0 375 374.999991" height="500" preserveAspectRatio="xMidYMid meet" version="1.0"><defs><filter x="0%" y="0%" width="100%" height="100%" id="cf4a1d0d2a"><feColorMatrix values="0 0 0 0 1 0 0 0 0 1 0 0 0 0 1 0 0 0 1 0" color-interpolation-filters="sRGB"/></filter><g/><mask id="1f465e4cf5"><g filter="url(#cf4a1d0d2a)"><rect x="-37.5" width="450" fill="#000000" y="-37.499999" height="449.999989" fill-opacity="0.63"/></g></mask><clipPath id="3894642deb"><path d="M 109 34 L 127 34 L 127 69 L 109 69 Z M 109 34 " clip-rule="nonzero"/></clipPath><clipPath id="f29aeb4cb0"><path d="M 0.335938 75.253906 L 91.542969 -1.570312 L 158.21875 77.59375 L 67.011719 154.414062 Z M 0.335938 75.253906 " clip-rule="nonzero"/></clipPath><clipPath id="cc432e33d4"><path d="M 0.335938 75.253906 L 91.542969 -1.570312 L 158.21875 77.59375 L 67.011719 154.414062 Z M 0.335938 75.253906 " clip-rule="nonzero"/></clipPath><clipPath id="f1a9942950"><path d="M 26 33 L 119 33 L 119 134 L 26 134 Z M 26 33 " clip-rule="nonzero"/></clipPath><clipPath id="a1679c7c06"><path d="M 0.335938 75.253906 L 91.542969 -1.570312 L 158.21875 77.59375 L 67.011719 154.414062 Z M 0.335938 75.253906 " clip-rule="nonzero"/></clipPath><clipPath id="d656a5fb49"><path d="M 0.335938 75.253906 L 91.542969 -1.570312 L 158.21875 77.59375 L 67.011719 154.414062 Z M 0.335938 75.253906 " clip-rule="nonzero"/></clipPath><clipPath id="0fed045d0d"><rect x="0" width="155" y="0" height="153"/></clipPath><clipPath id="878a23ba95"><path d="M 76 24 L 119.558594 24 L 119.558594 54 L 76 54 Z M 76 24 " clip-rule="nonzero"/></clipPath><clipPath id="77917dc2d0"><rect x="0" width="120" y="0" height="72"/></clipPath><clipPath id="60e7b0b1b6"><rect x="0" width="88" y="0" height="72"/></clipPath></defs><g mask="url(#1f465e4cf5)"><g transform="matrix(1, 0, 0, 1, 194, 119)"><g clip-path="url(#0fed045d0d)"><g clip-path="url(#3894642deb)"><g clip-path="url(#f29aeb4cb0)"><g clip-path="url(#cc432e33d4)"><path fill="#737373" d="M 115.953125 67.203125 C 122.917969 53.167969 118.253906 43.378906 118.117188 43.101562 L 118.117188 43.097656 L 118.117188 43.101562 C 123.328125 53.574219 120.054688 63.757812 117.679688 68.832031 C 138.332031 53.730469 116.75 34.589844 116.75 34.589844 C 103.894531 49.238281 112.203125 62.546875 115.953125 67.203125 " fill-opacity="1" fill-rule="nonzero"/></g></g></g><g clip-path="url(#f1a9942950)"><g clip-path="url(#a1679c7c06)"><g clip-path="url(#d656a5fb49)"><path fill="#737373" d="M 42.328125 39.894531 C 59.257812 75.109375 90.328125 70.234375 101.859375 66.972656 C 81.433594 43.109375 59.726562 44.027344 59.105469 44.054688 C 81.472656 42.730469 97.265625 55.484375 105.167969 63.917969 C 116.101562 79.195312 116.035156 101.796875 103.402344 116.441406 C 92.054688 129.59375 73.210938 134.542969 56.769531 128.832031 C 43.460938 124.207031 32.742188 112.726562 29.039062 99.132812 C 25.339844 85.539062 28.753906 70.210938 37.878906 59.476562 C 25.765625 73.125 23.484375 94.011719 32.058594 110.050781 C 32.851562 111.535156 33.746094 112.992188 34.730469 114.417969 C 40.84375 123.355469 50.371094 129.894531 60.847656 132.574219 C 72.984375 135.683594 86.1875 133.542969 96.75 126.820312 C 108.769531 119.160156 116.765625 105.957031 118.027344 91.753906 C 118.160156 90.289062 118.21875 88.816406 118.203125 87.347656 C 118.160156 82.527344 117.347656 77.722656 115.808594 73.15625 C 113.53125 66.398438 109.679688 60.238281 104.71875 55.15625 C 102.847656 53.238281 101.136719 51.171875 99.679688 48.925781 C 81.65625 21.246094 42.328125 39.894531 42.328125 39.894531 " fill-opacity="1" fill-rule="nonzero"/></g></g></g></g></g></g><g transform="matrix(1, 0, 0, 1, 143, 159)"><g clip-path="url(#77917dc2d0)"><g fill="#3871c1" fill-opacity="1"><g transform="translate(0.467187, 53.911586)"><g><path d="M 5.21875 0.0625 L 5.21875 -40.484375 L 18.3125 -40.484375 C 20.195312 -40.484375 21.984375 -40.21875 23.671875 -39.6875 C 25.367188 -39.164062 26.859375 -38.394531 28.140625 -37.375 C 29.429688 -36.351562 30.445312 -35.101562 31.1875 -33.625 C 31.9375 -32.144531 32.3125 -30.457031 32.3125 -28.5625 C 32.3125 -26.863281 31.972656 -25.316406 31.296875 -23.921875 C 30.617188 -22.523438 29.679688 -21.328125 28.484375 -20.328125 C 27.296875 -19.328125 25.9375 -18.554688 24.40625 -18.015625 L 35.671875 0.0625 L 27.328125 0.0625 L 17.359375 -17.296875 L 12.484375 -17.296875 L 12.484375 0.0625 Z M 12.546875 -23.234375 L 18.96875 -23.234375 C 20.894531 -23.328125 22.398438 -23.84375 23.484375 -24.78125 C 24.578125 -25.71875 25.125 -26.941406 25.125 -28.453125 C 25.125 -30.128906 24.515625 -31.46875 23.296875 -32.46875 C 22.085938 -33.476562 20.441406 -33.984375 18.359375 -33.984375 L 12.546875 -33.984375 Z M 12.546875 -23.234375 "/></g></g></g><g fill="#3871c1" fill-opacity="1"><g transform="translate(32.451745, 53.911586)"><g><path d="M 13.71875 0.578125 C 11.3125 0.578125 9.335938 0 7.796875 -1.15625 C 6.265625 -2.3125 5.128906 -3.945312 4.390625 -6.0625 C 3.660156 -8.1875 3.296875 -10.679688 3.296875 -13.546875 L 3.296875 -28.625 L 10.375 -28.625 L 10.375 -13.328125 C 10.375 -11.753906 10.507812 -10.40625 10.78125 -9.28125 C 11.0625 -8.15625 11.570312 -7.285156 12.3125 -6.671875 C 13.0625 -6.066406 14.144531 -5.765625 15.5625 -5.765625 C 16.375 -5.765625 17.171875 -5.894531 17.953125 -6.15625 C 18.742188 -6.425781 19.457031 -6.914062 20.09375 -7.625 C 20.738281 -8.34375 21.242188 -9.359375 21.609375 -10.671875 C 21.984375 -11.984375 22.171875 -13.671875 22.171875 -15.734375 L 22.171875 -28.625 L 29.28125 -28.625 L 29.28125 0 L 22.171875 0 L 22.171875 -3.359375 C 21.140625 -2.015625 19.894531 -1.019531 18.4375 -0.375 C 16.988281 0.257812 15.414062 0.578125 13.71875 0.578125 Z M 13.71875 0.578125 "/></g></g></g><g fill="#3871c1" fill-opacity="1"><g transform="translate(61.542776, 53.911586)"><g><path d="M 3.984375 -34.03125 L 3.984375 -40.484375 L 11.265625 -40.484375 L 11.265625 -34.03125 Z M 4.15625 0 L 4.15625 -28.625 L 11.09375 -28.625 L 11.09375 0 Z M 4.15625 0 "/></g></g></g><g clip-path="url(#878a23ba95)"><g fill="#3871c1" fill-opacity="1"><g transform="translate(72.441793, 53.911586)"><g><path d="M 4.15625 0 L 4.15625 -28.625 L 11.203125 -28.625 L 11.203125 -25.640625 C 12.160156 -26.941406 13.273438 -27.863281 14.546875 -28.40625 C 15.828125 -28.945312 17.140625 -29.21875 18.484375 -29.21875 C 20.210938 -29.21875 21.75 -28.800781 23.09375 -27.96875 C 24.445312 -27.144531 25.59375 -25.878906 26.53125 -24.171875 C 27.65625 -25.929688 29.050781 -27.210938 30.71875 -28.015625 C 32.394531 -28.816406 34.160156 -29.21875 36.015625 -29.21875 C 37.847656 -29.21875 39.425781 -28.878906 40.75 -28.203125 C 42.082031 -27.523438 43.179688 -26.613281 44.046875 -25.46875 C 44.910156 -24.320312 45.546875 -23.03125 45.953125 -21.59375 C 46.367188 -20.164062 46.578125 -18.695312 46.578125 -17.1875 L 46.578125 0 L 39.484375 0 L 39.484375 -16.296875 C 39.484375 -17.484375 39.347656 -18.554688 39.078125 -19.515625 C 38.804688 -20.484375 38.335938 -21.257812 37.671875 -21.84375 C 37.003906 -22.425781 36.066406 -22.71875 34.859375 -22.71875 C 33.597656 -22.71875 32.519531 -22.394531 31.625 -21.75 C 30.726562 -21.113281 30.046875 -20.269531 29.578125 -19.21875 C 29.109375 -18.164062 28.875 -17.003906 28.875 -15.734375 L 28.875 0 L 21.765625 0 L 21.765625 -16.421875 C 21.765625 -17.578125 21.632812 -18.628906 21.375 -19.578125 C 21.125 -20.523438 20.671875 -21.285156 20.015625 -21.859375 C 19.367188 -22.429688 18.445312 -22.71875 17.25 -22.71875 C 15.988281 -22.71875 14.90625 -22.394531 14 -21.75 C 13.09375 -21.113281 12.398438 -20.269531 11.921875 -19.21875 C 11.441406 -18.164062 11.203125 -17.003906 11.203125 -15.734375 L 11.203125 0 Z M 4.15625 0 "/></g></g></g></g></g></g><g transform="matrix(1, 0, 0, 1, 57, 159)"><g clip-path="url(#60e7b0b1b6)"><g fill="#2678d1" fill-opacity="1"><g transform="translate(0.318817, 53.914985)"><g><path d="M 5.21875 0 L 5.21875 -40.5 L 32.15625 -40.5 L 32.15625 -33.828125 L 12.5 -33.828125 L 12.5 -23.59375 L 30.8125 -23.59375 L 30.8125 -16.90625 L 12.5 -16.90625 L 12.5 -6.875 L 32.15625 -6.875 L 32.15625 0 Z M 5.21875 0 "/></g></g></g><g fill="#2678d1" fill-opacity="1"><g transform="translate(31.656414, 53.914985)"><g><path d="M 15.5 0.578125 C 13.175781 0.578125 11.144531 0.164062 9.40625 -0.65625 C 7.664062 -1.476562 6.222656 -2.59375 5.078125 -4 C 3.929688 -5.40625 3.070312 -6.992188 2.5 -8.765625 C 1.925781 -10.546875 1.640625 -12.382812 1.640625 -14.28125 C 1.640625 -16.144531 1.921875 -17.96875 2.484375 -19.75 C 3.046875 -21.539062 3.894531 -23.148438 5.03125 -24.578125 C 6.164062 -26.003906 7.601562 -27.132812 9.34375 -27.96875 C 11.082031 -28.8125 13.117188 -29.234375 15.453125 -29.234375 C 18.296875 -29.234375 20.796875 -28.535156 22.953125 -27.140625 C 25.117188 -25.742188 26.742188 -23.625 27.828125 -20.78125 L 21.1875 -18.203125 C 20.820312 -19.578125 20.128906 -20.703125 19.109375 -21.578125 C 18.097656 -22.460938 16.878906 -22.90625 15.453125 -22.90625 C 14.242188 -22.90625 13.210938 -22.660156 12.359375 -22.171875 C 11.515625 -21.679688 10.820312 -21.019531 10.28125 -20.1875 C 9.75 -19.363281 9.359375 -18.4375 9.109375 -17.40625 C 8.867188 -16.382812 8.75 -15.34375 8.75 -14.28125 C 8.75 -13.1875 8.867188 -12.132812 9.109375 -11.125 C 9.359375 -10.113281 9.742188 -9.203125 10.265625 -8.390625 C 10.796875 -7.578125 11.484375 -6.9375 12.328125 -6.46875 C 13.179688 -6 14.222656 -5.765625 15.453125 -5.765625 C 16.867188 -5.765625 18.085938 -6.1875 19.109375 -7.03125 C 20.128906 -7.882812 20.820312 -8.976562 21.1875 -10.3125 L 27.546875 -7.90625 C 26.910156 -6.132812 26.007812 -4.613281 24.84375 -3.34375 C 23.6875 -2.070312 22.3125 -1.097656 20.71875 -0.421875 C 19.132812 0.242188 17.394531 0.578125 15.5 0.578125 Z M 15.5 0.578125 "/></g></g></g><g fill="#2678d1" fill-opacity="1"><g transform="translate(56.087002, 53.914985)"><g><path d="M 16.140625 0.578125 C 13.921875 0.578125 11.910156 0.179688 10.109375 -0.609375 C 8.316406 -1.410156 6.773438 -2.5 5.484375 -3.875 C 4.191406 -5.25 3.195312 -6.835938 2.5 -8.640625 C 1.8125 -10.441406 1.46875 -12.359375 1.46875 -14.390625 C 1.46875 -16.410156 1.8125 -18.3125 2.5 -20.09375 C 3.195312 -21.882812 4.191406 -23.460938 5.484375 -24.828125 C 6.773438 -26.203125 8.316406 -27.28125 10.109375 -28.0625 C 11.910156 -28.84375 13.921875 -29.234375 16.140625 -29.234375 C 18.359375 -29.234375 20.363281 -28.84375 22.15625 -28.0625 C 23.945312 -27.28125 25.488281 -26.203125 26.78125 -24.828125 C 28.070312 -23.460938 29.066406 -21.882812 29.765625 -20.09375 C 30.460938 -18.3125 30.8125 -16.410156 30.8125 -14.390625 C 30.8125 -12.359375 30.460938 -10.441406 29.765625 -8.640625 C 29.066406 -6.835938 28.070312 -5.25 26.78125 -3.875 C 25.488281 -2.5 23.945312 -1.410156 22.15625 -0.609375 C 20.363281 0.179688 18.359375 0.578125 16.140625 0.578125 Z M 16.140625 -5.453125 C 17.453125 -5.453125 18.582031 -5.691406 19.53125 -6.171875 C 20.476562 -6.660156 21.242188 -7.320312 21.828125 -8.15625 C 22.410156 -8.988281 22.835938 -9.941406 23.109375 -11.015625 C 23.390625 -12.097656 23.53125 -13.222656 23.53125 -14.390625 C 23.53125 -15.578125 23.390625 -16.691406 23.109375 -17.734375 C 22.835938 -18.785156 22.410156 -19.722656 21.828125 -20.546875 C 21.242188 -21.367188 20.476562 -22.015625 19.53125 -22.484375 C 18.582031 -22.953125 17.453125 -23.1875 16.140625 -23.1875 C 14.378906 -23.1875 12.953125 -22.78125 11.859375 -21.96875 C 10.773438 -21.15625 9.984375 -20.078125 9.484375 -18.734375 C 8.992188 -17.398438 8.75 -15.953125 8.75 -14.390625 C 8.75 -13.222656 8.882812 -12.097656 9.15625 -11.015625 C 9.4375 -9.941406 9.867188 -8.988281 10.453125 -8.15625 C 11.046875 -7.320312 11.8125 -6.660156 12.75 -6.171875 C 13.6875 -5.691406 14.816406 -5.453125 16.140625 -5.453125 Z M 16.140625 -5.453125 "/></g></g></g></g></g></svg>